<svg width="52" height="47" viewBox="0 0 52 47" fill="none" xmlns="http://www.w3.org/2000/svg">
<ellipse cx="3.12963" cy="3.11735" rx="3.12963" ry="3.11735" fill="#DBDBDB"/>
<ellipse cx="3.12963" cy="27.5765" rx="3.12963" ry="3.11735" fill="#DBDBDB"/>
<ellipse cx="30.5741" cy="3.11735" rx="3.12963" ry="3.11735" fill="#DBDBDB"/>
<ellipse cx="30.5741" cy="27.5765" rx="3.12963" ry="3.11735" fill="#DBDBDB"/>
<ellipse cx="3.12963" cy="11.2704" rx="3.12963" ry="3.11735" fill="#DBDBDB"/>
<ellipse cx="3.12963" cy="35.7296" rx="3.12963" ry="3.11735" fill="#DBDBDB"/>
<ellipse cx="30.5741" cy="11.2704" rx="3.12963" ry="3.11735" fill="#DBDBDB"/>
<ellipse cx="30.5741" cy="35.7296" rx="3.12963" ry="3.11735" fill="#DBDBDB"/>
<ellipse cx="3.12963" cy="19.4235" rx="3.12963" ry="3.11735" fill="#DBDBDB"/>
<ellipse cx="3.12963" cy="43.8827" rx="3.12963" ry="3.11735" fill="#DBDBDB"/>
<ellipse cx="30.5741" cy="19.4235" rx="3.12963" ry="3.11735" fill="#DBDBDB"/>
<ellipse cx="30.5741" cy="43.8827" rx="3.12963" ry="3.11735" fill="#DBDBDB"/>
<ellipse cx="12.2778" cy="3.11735" rx="3.12963" ry="3.11735" fill="#DBDBDB"/>
<ellipse cx="12.2778" cy="27.5765" rx="3.12963" ry="3.11735" fill="#DBDBDB"/>
<ellipse cx="39.7222" cy="3.11735" rx="3.12963" ry="3.11735" fill="#DBDBDB"/>
<ellipse cx="39.7222" cy="27.5765" rx="3.12963" ry="3.11735" fill="#DBDBDB"/>
<ellipse cx="12.2778" cy="11.2704" rx="3.12963" ry="3.11735" fill="#DBDBDB"/>
<ellipse cx="12.2778" cy="35.7296" rx="3.12963" ry="3.11735" fill="#DBDBDB"/>
<ellipse cx="39.7222" cy="11.2704" rx="3.12963" ry="3.11735" fill="#DBDBDB"/>
<ellipse cx="39.7222" cy="35.7296" rx="3.12963" ry="3.11735" fill="#DBDBDB"/>
<ellipse cx="12.2778" cy="19.4235" rx="3.12963" ry="3.11735" fill="#DBDBDB"/>
<ellipse cx="12.2778" cy="43.8827" rx="3.12963" ry="3.11735" fill="#DBDBDB"/>
<ellipse cx="39.7222" cy="19.4235" rx="3.12963" ry="3.11735" fill="#DBDBDB"/>
<ellipse cx="39.7222" cy="43.8827" rx="3.12963" ry="3.11735" fill="#DBDBDB"/>
<ellipse cx="21.426" cy="3.11735" rx="3.12963" ry="3.11735" fill="#DBDBDB"/>
<ellipse cx="21.426" cy="27.5765" rx="3.12963" ry="3.11735" fill="#DBDBDB"/>
<ellipse cx="48.8704" cy="3.11735" rx="3.12963" ry="3.11735" fill="#DBDBDB"/>
<ellipse cx="48.8704" cy="27.5765" rx="3.12963" ry="3.11735" fill="#DBDBDB"/>
<ellipse cx="21.426" cy="11.2704" rx="3.12963" ry="3.11735" fill="#DBDBDB"/>
<ellipse cx="21.426" cy="35.7296" rx="3.12963" ry="3.11735" fill="#DBDBDB"/>
<ellipse cx="48.8704" cy="11.2704" rx="3.12963" ry="3.11735" fill="#DBDBDB"/>
<ellipse cx="48.8704" cy="35.7296" rx="3.12963" ry="3.11735" fill="#DBDBDB"/>
<ellipse cx="21.426" cy="19.4235" rx="3.12963" ry="3.11735" fill="#DBDBDB"/>
<ellipse cx="21.426" cy="43.8827" rx="3.12963" ry="3.11735" fill="#DBDBDB"/>
<ellipse cx="48.8704" cy="19.4235" rx="3.12963" ry="3.11735" fill="#DBDBDB"/>
<ellipse cx="48.8704" cy="43.8827" rx="3.12963" ry="3.11735" fill="#DBDBDB"/>
</svg>
